/* XPM */
static char * abiword_xpm[] = {
"32 32 306 2",
"  	c None",
". 	c #728AA7",
"+ 	c #8AA3C4",
"@ 	c #7F97B9",
"# 	c #6E829B",
"$ 	c #859CBA",
"% 	c #9BB4D6",
"& 	c #96B1D4",
"* 	c #93AED3",
"= 	c #8EA7C9",
"- 	c #6B7F99",
"; 	c #869BB8",
"> 	c #A2B9D8",
", 	c #9FB7D7",
"' 	c #9BB4D5",
") 	c #97B2D3",
"! 	c #93AFD2",
"~ 	c #87A1C1",
"{ 	c #576C85",
"] 	c #7A90AB",
"^ 	c #AAC0DD",
"/ 	c #A7BEDC",
"( 	c #A4BCDA",
"_ 	c #A0B9D8",
": 	c #9CB5D6",
"< 	c #98B2D4",
"[ 	c #95B0D4",
"} 	c #8099B8",
"| 	c #7B8DA4",
"1 	c #AEC2DC",
"2 	c #B0C5E0",
"3 	c #ADC2DE",
"4 	c #ABC1DE",
"5 	c #A7BEDB",
"6 	c #A3BAD9",
"7 	c #95AFD2",
"8 	c #657C99",
"9 	c #5F728A",
"0 	c #A2B4CD",
"a 	c #B9CCE5",
"b 	c #B6C9E3",
"c 	c #B4C8E2",
"d 	c #98ACC7",
"e 	c #6D839E",
"f 	c #7F95B1",
"g 	c #A0B8D6",
"h 	c #9AB4D5",
"i 	c #95B0D3",
"j 	c #8BA4C5",
"k 	c #91A3BB",
"l 	c #C0D0E8",
"m 	c #BED0E6",
"n 	c #BCCEE6",
"o 	c #9CAFCA",
"p 	c #586C85",
"q 	c #7B91AE",
"r 	c #97B1D4",
"s 	c #94AED2",
"t 	c #6E85A4",
"u 	c #576C87",
"v 	c #BBCBE1",
"w 	c #C6D6EB",
"x 	c #C5D5EA",
"y 	c #B3C5DB",
"z 	c #667A92",
"A 	c #8CA3C0",
"B 	c #9BB5D6",
"C 	c #93AED2",
"D 	c #8FA8CA",
"E 	c #667992",
"F 	c #85AE5E",
"G 	c #B8C9A7",
"H 	c #98A9C2",
"I 	c #CCDBEF",
"J 	c #CCDAED",
"K 	c #C8D7EB",
"L 	c #798EA6",
"M 	c #536985",
"N 	c #98B0D0",
"O 	c #94B0D3",
"P 	c #90ACD1",
"Q 	c #758CAA",
"R 	c #7FAE51",
"S 	c #B9DF95",
"T 	c #89B85E",
"U 	c #6D819A",
"V 	c #C4D3E8",
"W 	c #CFDDEF",
"X 	c #D4E1F2",
"Y 	c #ADBDD3",
"Z 	c #7C92AE",
"` 	c #8EABD0",
" .	c #88A2C6",
"..	c #6E8097",
"+.	c #61A13D",
"@.	c #C3D5B1",
"#.	c #B5D09B",
"$.	c #78A94C",
"%.	c #9FB2C9",
"&.	c #C9D8EC",
"*.	c #D0DDEF",
"=.	c #CBD8EA",
"-.	c #6E8099",
";.	c #5D7189",
">.	c #8CA5C4",
",.	c #8FACD1",
"'.	c #8BA8CE",
").	c #6980A0",
"!.	c #B3CF98",
"~.	c #CCD7C0",
"{.	c #85AF5E",
"].	c #657A94",
"^.	c #BCCCE4",
"/.	c #C7D7EB",
"(.	c #CBDAED",
"_.	c #97A8C0",
":.	c #5F7693",
"<.	c #91ACD0",
"[.	c #88A6CE",
"}.	c #809BBF",
"|.	c #A3C482",
"1.	c #D8E0D1",
"2.	c #96BC74",
"3.	c #91A5BF",
"4.	c #BFD1E8",
"5.	c #C2D3E9",
"6.	c #B7C8DD",
"7.	c #667A91",
"8.	c #87A5CC",
"9.	c #5B788E",
"0.	c #8CB664",
"a.	c #D3DDCA",
"b.	c #A8C88C",
"c.	c #657993",
"d.	c #B1C3DD",
"e.	c #B8CCE4",
"f.	c #BED0E7",
"g.	c #8699B2",
"h.	c #5E738E",
"i.	c #87A3C7",
"j.	c #7F9EC9",
"k.	c #7796A3",
"l.	c #78B151",
"m.	c #BCD7A0",
"n.	c #B4CD9B",
"o.	c #68A13B",
"p.	c #899EB8",
"q.	c #B0C4E0",
"r.	c #B0C2DC",
"s.	c #556A85",
"t.	c #728AAA",
"u.	c #7E9EC0",
"v.	c #84B382",
"w.	c #9ED966",
"x.	c #8BC84F",
"y.	c #79B045",
"z.	c #9BB1CE",
"A.	c #AEC3DF",
"B.	c #8DA3BD",
"C.	c #3C5471",
"D.	c #77A280",
"E.	c #90CE57",
"F.	c #80C939",
"G.	c #68B124",
"H.	c #617894",
"I.	c #A1B9D8",
"J.	c #A5BBDB",
"K.	c #A9BFDB",
"L.	c #657A95",
"M.	c #5B718C",
"N.	c #4D6F62",
"O.	c #7FC048",
"P.	c #80CD35",
"Q.	c #73BC2C",
"R.	c #5E913B",
"S.	c #8097B5",
"T.	c #9EB7D8",
"U.	c #8EA4C1",
"V.	c #5C718B",
"W.	c #8AA1BF",
"X.	c #788696",
"Y.	c #6E9752",
"Z.	c #7BC92C",
"`.	c #71BE25",
" +	c #74AA5C",
".+	c #58737C",
"++	c #92ABCC",
"@+	c #95B1D4",
"#+	c #7288A3",
"$+	c #6F8197",
"%+	c #627A97",
"&+	c #7D97B7",
"*+	c #93ACCE",
"=+	c #859DBD",
"-+	c #5F6D7E",
";+	c #5E615F",
">+	c #616B58",
",+	c #618C38",
"'+	c #69A340",
")+	c #668E9C",
"!+	c #6A85A8",
"~+	c #697E99",
"{+	c #8BA6C7",
"]+	c #8A99AC",
"^+	c #607591",
"/+	c #7A91B0",
"(+	c #8DA6C8",
"_+	c #93AED1",
":+	c #3E4959",
"<+	c #565957",
"[+	c #62655F",
"}+	c #5C5E5B",
"|+	c #5A5D55",
"1+	c #4E6060",
"2+	c #6C8DB7",
"3+	c #6A8AB5",
"4+	c #6E86A5",
"5+	c #88A6CD",
"6+	c #8BA8CF",
"7+	c #8BA3C4",
"8+	c #6E819B",
"9+	c #7188A7",
"0+	c #87A0C1",
"a+	c #94AFD2",
"b+	c #91ADD1",
"c+	c #8BA6C8",
"d+	c #6B83A2",
"e+	c #4E504C",
"f+	c #636560",
"g+	c #5E605C",
"h+	c #5B5D59",
"i+	c #595A56",
"j+	c #627DA0",
"k+	c #6488B6",
"l+	c #637893",
"m+	c #7C96B8",
"n+	c #82A1C9",
"o+	c #84A3CB",
"p+	c #8CA6C8",
"q+	c #6D84A1",
"r+	c #768EAC",
"s+	c #849EBF",
"t+	c #8AA5CA",
"u+	c #8CA9CF",
"v+	c #8CA7C9",
"w+	c #728BAA",
"x+	c #5A6F88",
"y+	c #6C6E6C",
"z+	c #5F625D",
"A+	c #5A5D58",
"B+	c #525450",
"C+	c #6E8FB9",
"D+	c #587395",
"E+	c #7C9DC7",
"F+	c #7E9EC8",
"G+	c #81A0C9",
"H+	c #83A1C9",
"I+	c #83A2CA",
"J+	c #87A6CD",
"K+	c #88A6CC",
"L+	c #88A3C7",
"M+	c #7890B0",
"N+	c #556B86",
"O+	c #5A5C57",
"P+	c #61645F",
"Q+	c #5B5E59",
"R+	c #5B5D58",
"S+	c #5F605D",
"T+	c #6983A4",
"U+	c #6682A7",
"V+	c #7D99BD",
"W+	c #7699C4",
"X+	c #789AC5",
"Y+	c #7A9CC6",
"Z+	c #7F9FC8",
"`+	c #86A3CA",
" @	c #7691B3",
".@	c #5F748F",
"+@	c #2D3E51",
"@@	c #4B4C49",
"#@	c #626460",
"$@	c #5C5F5A",
"%@	c #5C5E5A",
"&@	c #474844",
"*@	c #708BAD",
"=@	c #637B98",
"-@	c #7E99BD",
";@	c #829DC1",
">@	c #7992B3",
",@	c #627895",
"'@	c #42546B",
")@	c #272925",
"!@	c #60635D",
"~@	c #5D605B",
"{@	c #494B47",
"]@	c #5A6F8B",
"^@	c #6A7262",
"/@	c #8C8F88",
"(@	c #656763",
"_@	c #4B4C48",
":@	c #BEC5B7",
"<@	c #CED3C9",
"[@	c #5C6157",
"}@	c #79816F",
"|@	c #CBD4C2",
"1@	c #737E6B",
"                                                                ",
"                          . + @ #                               ",
"                        $ % & * = -                             ",
"                      ; > , ' ) ! ~ {                           ",
"                    ] ^ / ( _ : < [ }                           ",
"                  | 1 2 3 4 5 6 : & 7 8                         ",
"                9 0 a b c d e f g h i j                         ",
"                k l m n o p     q , r s t                       ",
"              u v w x y z         A B C D E               F G   ",
"              H I J K L           M N O P Q             R S T   ",
"            U V W X Y               Z < `  ...        +.@.#.$.  ",
"            %.&.*.=.-.              ;.>.,.'.).        !.~.{.    ",
"          ].^./.(._.                  :.<.[.}.      |.1.2.      ",
"          3.4.5.6.7.                    } 8.8.9.  0.a.b.        ",
"        c.d.e.f.g.                      h.i.j.k.l.m.n.o.        ",
"        p.q.c r.s.                        t.u.v.w.x.y.          ",
"        z.^ A.B.                          C.D.E.F.G.            ",
"      H.I.J.K.L.                        M.N.O.P.Q.R.            ",
"      S.T._ U.                    V.q W.X.Y.Z.`. +.+            ",
"      ++@+h #+              $+%+&+*+=+-+;+>+,+'+)+!+            ",
"    ~+C P {+]+          ^+/+(+_+{+8 :+<+[+}+|+1+2+3+            ",
"    4+5+6+7+      8+9+0+a+b+c+d+    e+f+g+h+i+  j+k+l+          ",
"    m+n+o+p+q+r+s+t+,.u+v+w+x+    y+z+z+A+B+      C+D+          ",
"    }.E+F+G+H+I+J+K+L+M+N+        O+P+Q+R+S+      T+U+          ",
"    V+W+X+Y+Z+`+ @.@+@          @@#@$@%@&@          *@          ",
"    =@-@;@>@,@'@              )@!@~@Q+{@            ]@          ",
"                              ^@/@(@_@                          ",
"                              :@<@[@                            ",
"                            }@|@1@                              ",
"                                                                ",
"                                                                ",
"                                                                "};
