/* XPM */
static char * abiword_xpm[] = {
"32 32 409 2",
"  	c None",
". 	c #484B4F",
"+ 	c #52585F",
"@ 	c #4E5359",
"# 	c #4B4B4B",
"$ 	c #404956",
"% 	c #899DB9",
"& 	c #8BA6C8",
"* 	c #869FC2",
"= 	c #707F92",
"- 	c #4A4A4B",
"; 	c #3F4955",
"> 	c #99AECA",
", 	c #96B0D3",
"' 	c #95B0D3",
") 	c #91ADD1",
"! 	c #91ACCF",
"~ 	c #546579",
"{ 	c #444C56",
"] 	c #96ABC7",
"^ 	c #A0B8D7",
"/ 	c #9EB7D7",
"( 	c #9BB4D5",
"_ 	c #96B1D3",
": 	c #91ACD0",
"< 	c #95AECF",
"[ 	c #4A5869",
"} 	c #454548",
"| 	c #7F94AE",
"1 	c #AAC0DD",
"2 	c #A7BEDB",
"3 	c #A4BBD9",
"4 	c #A0B8D8",
"5 	c #9CB5D5",
"6 	c #97B1D3",
"7 	c #8FABCF",
"8 	c #94ACCA",
"9 	c #474D54",
"0 	c #78879A",
"a 	c #B5C8E3",
"b 	c #AEC3DE",
"c 	c #ADC2DE",
"d 	c #A9BFDC",
"e 	c #A6BDDB",
"f 	c #A0B9D8",
"g 	c #9BB4D6",
"h 	c #94AED2",
"i 	c #5F738D",
"j 	c #4B5460",
"k 	c #A9BCD5",
"l 	c #B8CBE3",
"m 	c #B5C9E2",
"n 	c #B3C8E2",
"o 	c #A1B6D0",
"p 	c #8796AB",
"q 	c #90A4BE",
"r 	c #A3BBDA",
"s 	c #99B3D4",
"t 	c #92AED1",
"u 	c #A8BFDE",
"v 	c #3A4755",
"w 	c #454545",
"x 	c #9AABC4",
"y 	c #C0D1E8",
"z 	c #BED0E6",
"A 	c #BACDE5",
"B 	c #ABBED7",
"C 	c #4A5462",
"D 	c #4C4C4C",
"E 	c #42474C",
"F 	c #8196B1",
"G 	c #9EB6D6",
"H 	c #8DA9CE",
"I 	c #879CB6",
"J 	c #474A4D",
"K 	c #90918C",
"L 	c #616160",
"M 	c #58687C",
"N 	c #C7D6EC",
"O 	c #C6D5EA",
"P 	c #C3D3E8",
"Q 	c #C0D1E7",
"R 	c #536276",
"S 	c #474E58",
"T 	c #99B0CD",
"U 	c #98B2D3",
"V 	c #93AED1",
"W 	c #8DA9CB",
"X 	c #4D5866",
"Y 	c #4D5347",
"Z 	c #648149",
"` 	c #C4D0B9",
" .	c #787A77",
"..	c #4A4E53",
"+.	c #A6B6CC",
"@.	c #CAD8EC",
"#.	c #CCDAED",
"$.	c #7589A2",
"%.	c #556579",
"&.	c #A3BBDB",
"*.	c #93AFD2",
"=.	c #8EABD0",
"-.	c #7B90AD",
";.	c #4D4D4D",
">.	c #74A545",
",.	c #CFECB2",
"'.	c #86B957",
").	c #4E5349",
"!.	c #58697E",
"~.	c #CAD9ED",
"{.	c #CEDCEE",
"].	c #D2DFF0",
"^.	c #BCCBDF",
"/.	c #4A515B",
"(.	c #474747",
"_.	c #859BB5",
":.	c #8DAACF",
"<.	c #9FB8DA",
"[.	c #3F4D5E",
"}.	c #5E8838",
"|.	c #CFDCC3",
"1.	c #B5CE9E",
"2.	c #67943D",
"3.	c #353942",
"4.	c #BAC9E0",
"5.	c #C7D7EA",
"6.	c #CFDDEE",
"7.	c #D1DEEF",
"8.	c #708197",
"9.	c #4B545F",
"0.	c #8DA6C7",
"a.	c #8EABCF",
"b.	c #84A2CA",
"c.	c #899CB7",
"d.	c #47484A",
"e.	c #52673E",
"f.	c #BCD4A6",
"g.	c #D8DED2",
"h.	c #729F46",
"i.	c #6C7D93",
"j.	c #BECFE6",
"k.	c #CBDAED",
"l.	c #AFBFD5",
"m.	c #3B3B41",
"n.	c #4A4A4A",
"o.	c #8091A8",
"p.	c #8FACD1",
"q.	c #87A5CC",
"r.	c #7D99C0",
"s.	c #4F555D",
"t.	c #4A563F",
"u.	c #A4CD7B",
"v.	c #E6E6E7",
"w.	c #9BBD7A",
"x.	c #4F5947",
"y.	c #4B4E53",
"z.	c #9EB0CA",
"A.	c #BCCEE5",
"B.	c #C1D2E8",
"C.	c #BDCDE2",
"D.	c #4F5C6A",
"E.	c #394048",
"F.	c #94ABC7",
"G.	c #85A4CB",
"H.	c #4D6179",
"I.	c #4D514B",
"J.	c #90BB64",
"K.	c #DCDDDC",
"L.	c #A6CC83",
"M.	c #516F37",
"N.	c #505E6F",
"O.	c #B6C9E2",
"P.	c #B7CAE3",
"Q.	c #BBCDE5",
"R.	c #9CACC2",
"S.	c #46494C",
"T.	c #47566B",
"U.	c #89A6CC",
"V.	c #7D9CC6",
"W.	c #849ABA",
"X.	c #68963C",
"Y.	c #C8D8B6",
"Z.	c #C2D4AF",
"`.	c #628E3B",
" +	c #8DA1BB",
".+	c #AFC4DF",
"++	c #B3C7E1",
"@+	c #B9CBE4",
"#+	c #546478",
"$+	c #46494D",
"%+	c #8FA4C1",
"&+	c #7697C3",
"*+	c #7DB06A",
"=+	c #ACE376",
"-+	c #7BC037",
";+	c #7BB546",
">+	c #4C5148",
",+	c #354452",
"'+	c #B4C8E4",
")+	c #A9BFDD",
"!+	c #ACC1DD",
"~+	c #A7BAD3",
"{+	c #3F3F40",
"]+	c #4E5C71",
"^+	c #79A191",
"/+	c #9BD85F",
"(+	c #7CC733",
"_+	c #72B82F",
":+	c #4C5E3D",
"<+	c #8191A7",
"[+	c #A0B9D9",
"}+	c #A4BCDA",
"|+	c #ACC2DF",
"1+	c #526278",
"2+	c #313A46",
"3+	c #69798F",
"4+	c #3A5557",
"5+	c #93D74F",
"6+	c #7DCC31",
"7+	c #6CB721",
"8+	c #597540",
"9+	c #494D51",
"0+	c #8EA5C2",
"a+	c #9AB4D5",
"b+	c #97ADCA",
"c+	c #4D5259",
"d+	c #4B4F54",
"e+	c #495566",
"f+	c #6B829F",
"g+	c #A8BDDD",
"h+	c #8292A8",
"i+	c #77A84C",
"j+	c #7BD026",
"k+	c #6DBB1F",
"l+	c #7AB257",
"m+	c #425262",
"n+	c #4F5863",
"o+	c #93ADCF",
"p+	c #95B0D2",
"q+	c #97B2D4",
"r+	c #8799AF",
"s+	c #464646",
"t+	c #3E4C5C",
"u+	c #8798AE",
"v+	c #859EBF",
"w+	c #8DA8CE",
"x+	c #9CB3D2",
"y+	c #4B5664",
"z+	c #62655F",
"A+	c #62675E",
"B+	c #597E36",
"C+	c #70AF33",
"D+	c #6086AE",
"E+	c #758DAD",
"F+	c #4A5C72",
"G+	c #92AFD3",
"H+	c #90ABD0",
"I+	c #99B3D5",
"J+	c #455465",
"K+	c #50565E",
"L+	c #4E5F75",
"M+	c #91A5C1",
"N+	c #A1B9DA",
"O+	c #8DA8CB",
"P+	c #8295AC",
"Q+	c #2E3843",
"R+	c #646661",
"S+	c #5E615D",
"T+	c #5B5E59",
"U+	c #5B5B59",
"V+	c #434D58",
"W+	c #7799C5",
"X+	c #85A4CE",
"Y+	c #36414D",
"Z+	c #6E84A0",
"`+	c #89A6CD",
" @	c #A3B9D6",
".@	c #3C3C40",
"+@	c #333C47",
"@@	c #67768A",
"#@	c #90A4BF",
"$@	c #8BA4C7",
"%@	c #95B0D4",
"&@	c #8AA7CD",
"*@	c #94B0D2",
"=@	c #6D83A1",
"-@	c #48525D",
";@	c #565752",
">@	c #5C5E5A",
",@	c #565854",
"'@	c #5F5F5B",
")@	c #667E9D",
"!@	c #5D84B8",
"~@	c #616E81",
"{@	c #3E3E42",
"]@	c #97AECE",
"^@	c #7F9FC8",
"/@	c #83A2CA",
"(@	c #9DB5D4",
"_@	c #566D8A",
":@	c #768CA8",
"<@	c #A5BBDB",
"[@	c #8DA9D0",
"}@	c #87A5CB",
"|@	c #88A6CC",
"1@	c #8EA9CD",
"2@	c #8EA4BF",
"3@	c #4A586A",
"4@	c #494A48",
"5@	c #666964",
"6@	c #5E605C",
"7@	c #5A5C58",
"8@	c #5C5D59",
"9@	c #434444",
"0@	c #4A535F",
"a@	c #6086B6",
"b@	c #8095AE",
"c@	c #373841",
"d@	c #9CB4D6",
"e@	c #7A9BC5",
"f@	c #7E9DC7",
"g@	c #7F9EC6",
"h@	c #84A3CB",
"i@	c #82A1CA",
"j@	c #80A0C9",
"k@	c #7B91AD",
"l@	c #485669",
"m@	c #464A4D",
"n@	c #5F625D",
"o@	c #5E615C",
"p@	c #5B5D59",
"q@	c #595B56",
"r@	c #4D4D4C",
"s@	c #48494B",
"t@	c #7E95B1",
"u@	c #6C89B1",
"v@	c #484B4E",
"w@	c #373941",
"x@	c #9AB3D5",
"y@	c #7295C1",
"z@	c #7798C4",
"A@	c #7899C4",
"B@	c #7D9DC7",
"C@	c #85A3CB",
"D@	c #7B96B9",
"E@	c #7D8FA5",
"F@	c #3A4756",
"G@	c #4E504C",
"H@	c #626460",
"I@	c #5A5C57",
"J@	c #585955",
"K@	c #414D5B",
"L@	c #819EC3",
"M@	c #51565B",
"N@	c #6F85A2",
"O@	c #95AED0",
"P@	c #9AB5D7",
"Q@	c #8CA4C3",
"R@	c #6A7F9D",
"S@	c #465364",
"T@	c #41454A",
"U@	c #3E3E3E",
"V@	c #414141",
"W@	c #3F3F3F",
"X@	c #3D3D3D",
"Y@	c #363737",
"Z@	c #696B66",
"`@	c #5B5F59",
" #	c #4D504C",
".#	c #3F3E3E",
"+#	c #444444",
"@#	c #484848",
"##	c #637995",
"$#	c #495462",
"%#	c #494949",
"&#	c #34343B",
"*#	c #2D3039",
"=#	c #393939",
"-#	c #424242",
";#	c #373737",
">#	c #353535",
",#	c #333333",
"'#	c #323232",
")#	c #303030",
"!#	c #313131",
"~#	c #848F77",
"{#	c #7A7B78",
"]#	c #60625E",
"^#	c #525450",
"/#	c #383837",
"(#	c #3A3A3A",
"_#	c #3C3C3C",
":#	c #404040",
"<#	c #3C3D42",
"[#	c #404346",
"}#	c #363636",
"|#	c #3E413B",
"1#	c #CCD2C6",
"2#	c #DEE2DA",
"3#	c #5B5F56",
"4#	c #3B3B3B",
"5#	c #6E7369",
"6#	c #DCE0D6",
"7#	c #818B78",
"8#	c #6F716D",
"9#	c #61655D",
"0#	c #343434",
"a#	c #2F2F2F",
"b#	c #434343",
"                          . + @ #                               ",
"                        $ % & * = -                             ",
"                      ; > , ' ) ! ~                             ",
"                    { ] ^ / ( _ : < [                           ",
"                  } | 1 2 3 4 5 6 7 8 9                         ",
"                # 0 a b c d e f g _ h i                         ",
"                j k l m n o p q r s t u v                       ",
"              w x y z A B C D E F G 6 H I J                 K L ",
"              M N O P Q R       S T U V W X             Y Z `  .",
"            ..+.@.#.#.$.D         %.&.*.=.-.;.          >.,.'.).",
"            !.~.{.].^./.          (._._ :.<.[.        }.|.1.2.  ",
"          3.4.5.6.7.8.D             9.0.a.b.c.d.    e.f.g.h.    ",
"        ;.i.j.O k.l.m.              n.o.p.q.r.s.  t.u.v.w.x.    ",
"        y.z.A.B.C.D.                  E.F.b.G.H.I.J.K.L.M.      ",
"        N.O.P.Q.R.S.                    T.U.V.W.X.Y.Z.`.        ",
"      n. +.+++@+#+                      $+%+&+*+=+-+;+>+        ",
"      ,+'+)+!+~+{+                        ]+^+/+(+_+:+          ",
"    D <+[+}+|+1+                      2+3+4+5+6+7+8+            ",
"    9+0+a+/ b+c+              n.d+e+f+g+h+i+j+k+l+m+            ",
"    n+o+p+q+r+-           s+t+u+v+w+x+y+z+A+B+C+D+E+D           ",
"    F+G+H+I+J+      S.K+L+M+N+:.O+P+Q+R+S+T+U+V+W+X+Y+          ",
"    Z+q.`+ @.@  +@@@#@$@%@&@*@=@-@D ;@z+>@,@'@(.)@!@~@          ",
"  {@]@^@/@(@_@:@<@[@}@|@1@2@3@D   4@5@6@7@8@9@  0@a@b@n.        ",
"  c@d@e@f@g@b.h@i@j@' k@l@m@    D n@o@p@q@r@    s@t@u@v@        ",
"  w@x@y@z@A@B@C@D@E@F@n.  D D   G@H@p@I@J@n.;.;.  K@L@M@        ",
"  (.N@O@P@Q@R@S@T@U@V@W@U@X@U@Y@Z@`@7@ #.#+#w s+@#D ##$#        ",
"# %#@#&#*#=#-#U@=#;#>#,#'#)#!#~#{#]#^#/#(#_#U@:#-#w <#[#D       ",
";.# @#s++#-#:#U@_#(#=#;#}#>#|#1#2#3#(#4#_#U@:#-#+#s+n.D ;.      ",
"        ;.# n.@#(.s+w w +#w 5#6#7#s++#+#w s+@#n.# D D ;.;.      ",
"                            8#9#w W@4#;#0#)#a#,#}#(#U@-#(.;.    ",
"                                n.%#(.w b#-#b#w @#n.D           ",
"                                                                "};
